<svg width="17" height="17" viewBox="0 0 17 17" fill="none" xmlns="http://www.w3.org/2000/svg">
<path d="M6.37496 1.41666C4.51913 1.41666 3.01038 2.92541 3.01038 4.78124C3.01038 6.60166 4.43413 8.07499 6.28996 8.13874C6.34663 8.13166 6.40329 8.13166 6.44579 8.13874C6.45996 8.13874 6.46704 8.13874 6.48121 8.13874C6.48829 8.13874 6.48829 8.13874 6.49538 8.13874C8.30871 8.07499 9.73246 6.60166 9.73954 4.78124C9.73954 2.92541 8.23079 1.41666 6.37496 1.41666Z" fill="black"/>
<path d="M9.97331 10.0229C7.99706 8.70542 4.77414 8.70542 2.78372 10.0229C1.88414 10.625 1.38831 11.4396 1.38831 12.3108C1.38831 13.1821 1.88414 13.9896 2.77664 14.5846C3.76831 15.2504 5.07164 15.5833 6.37497 15.5833C7.67831 15.5833 8.98164 15.2504 9.97331 14.5846C10.8658 13.9825 11.3616 13.175 11.3616 12.2967C11.3546 11.4254 10.8658 10.6179 9.97331 10.0229Z" fill="black"/>
<path d="M14.1596 5.19917C14.273 6.57333 13.2955 7.7775 11.9425 7.94042C11.9355 7.94042 11.9355 7.94042 11.9284 7.94042H11.9071C11.8646 7.94042 11.8221 7.94042 11.7867 7.95458C11.0996 7.99 10.4692 7.77042 9.99463 7.36667C10.7242 6.715 11.1421 5.7375 11.0571 4.675C11.0075 4.10125 10.8092 3.57708 10.5117 3.13083C10.7809 2.99625 11.0925 2.91125 11.4113 2.88292C12.7996 2.7625 14.0392 3.79667 14.1596 5.19917Z" fill="black"/>
<path d="M15.5762 11.7512C15.5195 12.4383 15.0804 13.0333 14.3437 13.4371C13.6354 13.8267 12.7429 14.0108 11.8575 13.9896C12.3675 13.5292 12.665 12.9554 12.7216 12.3462C12.7925 11.4679 12.3745 10.625 11.5387 9.95208C11.0641 9.57666 10.5116 9.27916 9.90955 9.05958C11.475 8.60625 13.4441 8.91083 14.6554 9.88833C15.307 10.4125 15.64 11.0712 15.5762 11.7512Z" fill="black"/>
</svg>
