<svg width="25" height="25" viewBox="0 0 25 25" fill="none" xmlns="http://www.w3.org/2000/svg">
<path d="M6.25 19.7917V20.8333C6.25 21.1285 6.15017 21.3759 5.95052 21.5755C5.75087 21.7752 5.50347 21.875 5.20833 21.875H4.16667C3.87153 21.875 3.62413 21.7752 3.42448 21.5755C3.22483 21.3759 3.125 21.1285 3.125 20.8333V12.5L5.3125 6.25C5.41667 5.9375 5.6033 5.68576 5.8724 5.49479C6.14149 5.30382 6.44097 5.20833 6.77083 5.20833H18.2292C18.559 5.20833 18.8585 5.30382 19.1276 5.49479C19.3967 5.68576 19.5833 5.9375 19.6875 6.25L21.875 12.5V20.8333C21.875 21.1285 21.7752 21.3759 21.5755 21.5755C21.3759 21.7752 21.1285 21.875 20.8333 21.875H19.7917C19.4965 21.875 19.2491 21.7752 19.0495 21.5755C18.8498 21.3759 18.75 21.1285 18.75 20.8333V19.7917H6.25ZM6.04167 10.4167H18.9583L17.8646 7.29167H7.13542L6.04167 10.4167ZM7.8125 16.6667C8.24653 16.6667 8.61545 16.5148 8.91927 16.2109C9.22309 15.9071 9.375 15.5382 9.375 15.1042C9.375 14.6701 9.22309 14.3012 8.91927 13.9974C8.61545 13.6936 8.24653 13.5417 7.8125 13.5417C7.37847 13.5417 7.00955 13.6936 6.70573 13.9974C6.40191 14.3012 6.25 14.6701 6.25 15.1042C6.25 15.5382 6.40191 15.9071 6.70573 16.2109C7.00955 16.5148 7.37847 16.6667 7.8125 16.6667ZM17.1875 16.6667C17.6215 16.6667 17.9905 16.5148 18.2943 16.2109C18.5981 15.9071 18.75 15.5382 18.75 15.1042C18.75 14.6701 18.5981 14.3012 18.2943 13.9974C17.9905 13.6936 17.6215 13.5417 17.1875 13.5417C16.7535 13.5417 16.3845 13.6936 16.0807 13.9974C15.7769 14.3012 15.625 14.6701 15.625 15.1042C15.625 15.5382 15.7769 15.9071 16.0807 16.2109C16.3845 16.5148 16.7535 16.6667 17.1875 16.6667ZM5.20833 17.7083H19.7917V12.5H5.20833V17.7083Z" fill="#1D1B20"/>
</svg>
